#!OML:ASF X:\für Bonn\!DataBase\2005_08_11_Bastian_Final\c3d\Bastian.ASF
:FULLY-SPECIFIED
:DEGREES
97
root -1.06326 17.4005 -5.23842 129.14 24.3028 -193.869
lowerback 43.0082 3.25513 -4.0737
upperback 18.1427 10.3635 -7.29999
thorax 1.28598 9.0673 -9.13223
lowerneck -16.2501 -0.753853 -2.3831
upperneck -6.09544 0.463239 2.12149
head 0.78265 0.772239 1.11079
rclavicle -2.18663e-014 9.14409e-014
rhumerus -45.1928 27.0736 -96.8435
rradius 116.968
rwrist 8.09218
rhand -14.3723 16.8129
rfingers 7.12502
rthumb 11.7701 -12.8364
lclavicle -2.18663e-014 9.14409e-014
lhumerus -57.436 -0.788532 106.027
lradius 26.467
lwrist 31.389
lhand 7.59499 -7.44077
lfingers 7.12502
lthumb 32.8419 19.5927
rfemur 35.7121 8.9387 18.7232
rtibia 39.1372
rfoot -184.632 -181.171
rtoes -0.610368
lfemur -80.3156 31.1882 -7.88746
ltibia 72.0768
lfoot 9.78569 -7.58571
ltoes -41.0738
98
root -1.06164 17.3907 -5.25519 129.8 24.0357 -193.767
lowerback 42.1373 3.12444 -3.94737
upperback 18.1217 10.064 -7.18625
thorax 1.25993 8.79341 -8.89487
lowerneck -16.0007 -0.775203 -2.65064
upperneck -5.98792 0.434838 2.08959
head 0.778153 0.74423 1.14404
rclavicle -6.36111e-015 -1.33583e-013
rhumerus -46.4597 26.295 -97.4535
rradius 116.422
rwrist 8.30271
rhand -14.4974 16.6665
rfingers 7.12502
rthumb 11.6494 -12.9897
lclavicle -6.36111e-015 -1.33583e-013
lhumerus -57.101 -1.04654 105.602
lradius 26.8696
lwrist 31.7753
lhand 7.15221 -7.75331
lfingers 7.12502
lthumb 32.4206 19.3674
rfemur 35.5175 8.90938 18.9556
rtibia 38.8639
rfoot -185.35 -182.173
rtoes -1.62705
lfemur -81.0016 31.574 -9.30569
ltibia 76.2056
lfoot 9.90272 -8.77036
ltoes -40.6091
99
root -1.06024 17.3823 -5.26767 130.518 23.7979 -193.633
lowerback 41.3651 3.01855 -3.81429
upperback 17.9733 9.77743 -7.02851
thorax 1.23678 8.52596 -8.64657
lowerneck -15.681 -0.821745 -2.98314
upperneck -5.945 0.38516 2.10183
head 0.741734 0.709287 1.20057
rclavicle -6.36111e-015 6.12257e-014
rhumerus -47.7542 25.4473 -98.0049
rradius 115.891
rwrist 8.72514
rhand -14.7719 16.5107
rfingers 7.12502
rthumb 11.3847 -13.1603
lclavicle -6.36111e-015 6.12257e-014
lhumerus -56.6373 -1.29015 105.045
lradius 27.1186
lwrist 31.7322
lhand 6.58673 -8.19811
lfingers 7.12502
lthumb 31.8822 19.0314
rfemur 35.2963 8.91974 19.2953
rtibia 38.5284
rfoot -186.019 -183.279
rtoes -2.80185
lfemur -81.3518 31.9345 -10.5947
ltibia 80.0332
lfoot 9.39364 -9.52459
ltoes -40.1289
100
root -1.06064 17.3726 -5.27953 131.316 23.5926 -193.453
lowerback 40.5415 2.89051 -3.6108
upperback 17.8064 9.47336 -6.86942
thorax 1.21727 8.248 -8.42652
lowerneck -15.2883 -0.863914 -3.32373
upperneck -5.94359 0.338501 2.12446
head 0.6797 0.676134 1.2612
rclavicle -4.73108e-014 9.06458e-014
rhumerus -48.9946 24.5975 -98.5223
rradius 115.394
rwrist 9.26816
rhand -15.0914 16.2771
rfingers 7.12502
rthumb 11.0766 -13.4106
lclavicle -4.73108e-014 9.06458e-014
lhumerus -56.0678 -1.43891 104.279
lradius 27.234
lwrist 31.2809
lhand 5.90612 -8.72155
lfingers 7.12502
lthumb 31.2339 18.6351
rfemur 35.024 8.98411 19.7489
rtibia 38.1851
rfoot -186.667 -184.454
rtoes -3.74239
lfemur -81.4507 32.272 -11.7872
ltibia 83.5487
lfoot 8.51834 -9.9489
ltoes -39.5713
101
root -1.06343 17.361 -5.29125 132.139 23.4032 -193.209
lowerback 39.7661 2.74361 -3.3301
upperback 17.6139 9.16127 -6.69095
thorax 1.16555 7.96853 -8.2338
lowerneck -14.8472 -0.912085 -3.67784
upperneck -5.98318 0.284045 2.1573
head 0.596841 0.640664 1.32664
rclavicle -5.725e-014 1.11319e-014
rhumerus -50.2225 23.658 -98.9903
rradius 114.952
rwrist 9.87748
rhand -15.4199 16.048
rfingers 7.12502
rthumb 10.7597 -13.6565
lclavicle -5.725e-014 1.11319e-014
lhumerus -55.4151 -1.487 103.321
lradius 27.2521
lwrist 30.5461
lhand 5.22012 -9.20037
lfingers 7.12502
lthumb 30.5799 18.2803
rfemur 34.7089 8.99936 20.1912
rtibia 37.8923
rfoot -187.345 -185.548
rtoes -4.47509
lfemur -81.2448 32.5727 -12.8467
ltibia 86.7318
lfoot 7.50379 -9.99494
ltoes -38.8138
102
root -1.07026 17.3454 -5.30386 133.039 23.2032 -192.912
lowerback 38.9595 2.5502 -2.98618
upperback 17.4023 8.79939 -6.52788
thorax 1.11034 7.66574 -8.07686
lowerneck -14.4418 -0.938956 -3.99645
upperneck -5.98349 0.248555 2.18597
head 0.532178 0.613203 1.38651
rclavicle 2.0276e-014 9.46215e-014
rhumerus -51.36 22.7358 -99.4196
rradius 114.543
rwrist 10.4205
rhand -15.7013 15.8332
rfingers 7.12502
rthumb 10.4883 -13.8852
lclavicle 2.0276e-014 9.46215e-014
lhumerus -54.6957 -1.69161 102.361
lradius 27.3221
lwrist 29.9722
lhand 4.48147 -9.49347
lfingers 7.12502
lthumb 29.8753 18.1163
rfemur 34.2476 8.83576 20.4256
rtibia 37.6831
rfoot -188.125 -186.405
rtoes -5.10769
lfemur -80.7935 32.7901 -13.831
ltibia 89.6056
lfoot 6.29079 -9.59205
ltoes -38.8463
103
root -1.08122 17.3213 -5.31936 134.005 23.0442 -192.564
lowerback 38.1311 2.333 -2.54733
upperback 17.1658 8.42309 -6.36774
thorax 1.04774 7.35771 -7.97212
lowerneck -14.0292 -0.951891 -4.26796
upperneck -6.00561 0.224298 2.19677
head 0.458641 0.59151 1.43289
rclavicle 2.14687e-014 3.97569e-014
rhumerus -52.3841 21.8176 -99.8095
rradius 114.197
rwrist 10.8161
rhand -15.8954 15.5558
rfingers 7.12502
rthumb 10.3011 -14.172
lclavicle 2.14687e-014 3.97569e-014
lhumerus -53.8609 -1.75828 101.207
lradius 27.3044
lwrist 29.3032
lhand 3.77366 -9.70646
lfingers 7.12502
lthumb 29.1996 18.0228
rfemur 33.6674 8.55195 20.5216
rtibia 37.5396
rfoot -188.992 -186.999
rtoes -5.56017
lfemur -80.1074 32.9712 -14.6645
ltibia 92.2198
lfoot 5.01032 -8.85562
ltoes -38.9074
104
root -1.09357 17.2968 -5.3299 135.087 22.9117 -192.138
lowerback 37.2846 2.10052 -2.03317
upperback 16.8817 8.02424 -6.20119
thorax 0.948515 7.0329 -7.90097
lowerneck -13.6507 -0.951348 -4.5161
upperneck -5.9839 0.21164 2.23673
head 0.404687 0.574571 1.48607
rclavicle -6.36111e-015 9.30312e-014
rhumerus -53.3106 20.9101 -100.165
rradius 113.903
rwrist 11.0664
rhand -15.9749 15.3289
rfingers 7.12502
rthumb 10.2243 -14.4027
lclavicle -6.36111e-015 9.30312e-014
lhumerus -53.0511 -1.82548 100.002
lradius 27.3891
lwrist 28.8547
lhand 3.10223 -9.73678
lfingers 7.12502
lthumb 28.5582 18.1021
rfemur 32.952 8.19875 20.6252
rtibia 37.3984
rfoot -189.883 -187.504
rtoes -5.90456
lfemur -79.2787 33.0904 -15.363
ltibia 94.5702
lfoot 3.7521 -7.98528
ltoes -38.7721
105
root -1.10537 17.2829 -5.3291 136.308 22.8012 -191.674
lowerback 36.3733 1.89303 -1.51373
upperback 16.5444 7.62471 -6.00534
thorax 0.818845 6.69208 -7.80522
lowerneck -13.2385 -0.945706 -4.77802
upperneck -5.99054 0.205579 2.27829
head 0.335807 0.561868 1.54224
rclavicle 3.91606e-014 -1.66979e-014
rhumerus -54.1591 20.078 -100.44
rradius 113.652
rwrist 11.1208
rhand -16.0143 15.1095
rfingers 7.12502
rthumb 10.1864 -14.6239
lclavicle 3.91606e-014 -1.66979e-014
lhumerus -52.2079 -1.87816 98.8007
lradius 27.5346
lwrist 28.6552
lhand 2.45619 -9.55867
lfingers 7.12502
lthumb 27.9408 18.3823
rfemur 32.081 7.79229 20.6957
rtibia 37.1952
rfoot -190.746 -187.84
rtoes -5.95336
lfemur -78.3577 33.1602 -15.9627
ltibia 96.6648
lfoot 2.59151 -7.16625
ltoes -38.9614
106
root -1.11355 17.2826 -5.31954 137.665 22.7455 -191.161
lowerback 35.3195 1.71264 -0.96277
upperback 16.1859 7.24789 -5.78485
thorax 0.728696 6.3547 -7.69989
lowerneck -12.7807 -0.925026 -5.02804
upperneck -6.03011 0.214547 2.33372
head 0.248224 0.557136 1.60113
rclavicle -3.63776e-014 2.34566e-014
rhumerus -54.9166 19.2641 -100.668
rradius 113.363
rwrist 11.0381
rhand -15.9782 15.0056
rfingers 7.12502
rthumb 10.2212 -14.726
lclavicle -3.63776e-014 2.34566e-014
lhumerus -51.3227 -1.87531 97.565
lradius 27.7078
lwrist 28.6785
lhand 1.86263 -9.31215
lfingers 7.12502
lthumb 27.3732 18.7199
rfemur 31.1049 7.33322 20.7665
rtibia 36.8934
rfoot -191.59 -188.024
rtoes -5.6642
lfemur -77.3063 33.2229 -16.3879
ltibia 98.5064
lfoot 1.88214 -6.47634
ltoes -38.876
